<?xml version="1.0" encoding="UTF-8"?>
<svg version="1.1" xmlns="http://www.w3.org/2000/svg" width="512" height="512">
<path d="M0 0 C1.12420823 -0.00445784 2.24841646 -0.00891569 3.40669161 -0.01350862 C5.25189517 -0.01323207 5.25189517 -0.01323207 7.13437557 -0.01294994 C8.44508477 -0.01662663 9.75579396 -0.02030332 11.10622162 -0.02409142 C14.74306581 -0.03409172 18.37989351 -0.03782504 22.0167495 -0.04048073 C25.93990695 -0.04438964 29.86305139 -0.05396756 33.78620052 -0.0626936 C43.25996729 -0.08244139 52.7337351 -0.09252205 62.2075173 -0.10142139 C66.67141804 -0.10580702 71.1353176 -0.11117312 75.59921741 -0.11641026 C90.44252844 -0.13342081 105.28583874 -0.14791436 120.12915802 -0.155159 C123.9796877 -0.15706882 127.83021737 -0.15898916 131.68074703 -0.16094494 C132.63774976 -0.16142868 133.59475248 -0.16191242 134.58075529 -0.16241082 C150.07909805 -0.17070885 165.57736358 -0.19604271 181.07567263 -0.22852562 C196.99550512 -0.26161936 212.91529838 -0.27960985 228.83516544 -0.28280324 C237.77031428 -0.28496618 246.70535047 -0.29368327 255.64046574 -0.31926441 C263.25091782 -0.34100305 270.86122989 -0.3490063 278.4717095 -0.33929763 C282.3517259 -0.33476207 286.23145362 -0.3365954 290.11143017 -0.35605907 C293.67038591 -0.37375746 297.22884379 -0.37263977 300.78780531 -0.35716178 C302.67058588 -0.35368339 304.55337209 -0.36976212 306.43607908 -0.38676625 C319.30839076 -0.29008393 329.82115649 3.42613455 339.38948727 12.13422108 C352.06479854 25.91685508 350.9886553 42.92803552 350.92073727 60.44672108 C350.92343672 62.90806703 350.9273229 65.36941194 350.93233395 67.83075428 C350.93820759 72.97140191 350.92973476 78.11177017 350.91097164 83.25238514 C350.88818396 89.81218681 350.90131846 96.37133363 350.9252615 102.93111134 C350.93977708 108.00833458 350.93508706 113.08540486 350.92475033 118.16263294 C350.92209896 120.58013456 350.92529622 122.99765048 350.93466854 125.41513538 C350.98734268 142.81700214 350.84282193 157.6449071 338.38948727 171.13422108 C328.0401001 180.63442776 315.37754726 182.74351113 301.76521969 182.64215565 C300.45654777 182.64839561 299.14787584 182.65463557 297.7995472 182.66106462 C294.20536994 182.67760893 290.61162295 182.66958056 287.01744509 182.65711975 C283.12642651 182.64800976 279.23547813 182.66206825 275.34447384 182.67303944 C267.73711823 182.69076622 260.12992106 182.68701085 252.5225594 182.67538887 C246.33637369 182.66633173 240.15023217 182.66514039 233.96404171 182.66948414 C232.64014046 182.67040354 232.64014046 182.67040354 231.28949374 182.67134151 C229.49614818 182.67262049 227.70280263 182.67391735 225.90945709 182.67523187 C209.11852289 182.68662056 192.32767624 182.67355088 175.5367564 182.65203041 C161.14940672 182.63416098 146.76218617 182.63726557 132.37483883 182.65570545 C115.64136062 182.67714246 98.90795902 182.68552208 82.17446899 182.6732564 C80.38795695 182.67198229 78.60144489 182.6707248 76.81493282 182.66948414 C75.93608164 182.66886704 75.05723045 182.66824993 74.15174741 182.66761413 C67.97758777 182.66416972 61.80347698 182.66996993 55.62932491 182.67940235 C48.09848823 182.69065523 40.56781817 182.68751349 33.03700042 182.66627938 C29.1993514 182.65581297 25.36197957 182.65157108 21.524333 182.66487598 C17.3539021 182.67911528 13.18416268 182.66204084 9.01375484 182.64215565 C7.81538589 182.65107853 6.61701693 182.66000142 5.38233376 182.6691947 C-7.70389205 182.54866854 -18.90967835 179.09003138 -28.61051273 170.13422108 C-41.33557655 156.27172139 -40.20930936 139.17564925 -40.14176273 121.56781483 C-40.14446195 119.08165301 -40.14834794 116.59549222 -40.15335941 114.10933399 C-40.15923306 108.91741277 -40.15075945 103.72576817 -40.13199711 98.53387928 C-40.10919748 91.90447941 -40.12235148 85.27572708 -40.14628696 78.64635086 C-40.16079231 73.51855626 -40.15611738 68.39091332 -40.14577579 63.26311398 C-40.14312223 60.81966607 -40.14632957 58.37620404 -40.15569401 55.93277264 C-40.16593895 52.50923913 -40.15024731 49.08673159 -40.12809086 45.66327381 C-40.14023624 44.17367397 -40.14023624 44.17367397 -40.15262699 42.65398121 C-40.00802027 30.49358899 -35.83053514 20.08741873 -27.61051273 11.13422108 C-19.42030138 4.12319508 -10.86354486 0.02003619 0 0 Z M-13.54801273 27.82172108 C-18.04988344 35.05199827 -19.05490133 41.97921285 -18.99869633 50.37640858 C-19.00395329 51.35813038 -19.00921024 52.33985218 -19.0146265 53.35132313 C-19.02774445 56.57078812 -19.01911742 59.78975175 -19.00895023 63.00922108 C-19.01097332 65.26166344 -19.01388671 67.51410516 -19.01764774 69.7665453 C-19.02206 74.47705823 -19.01567534 79.18739998 -19.00162601 83.89789295 C-18.984535 89.92003476 -18.99438205 95.94177537 -19.01234341 101.96390247 C-19.02321086 106.61203474 -19.01972129 111.26007271 -19.01196003 115.90820789 C-19.00996622 118.12805702 -19.01238836 120.34791484 -19.01939869 122.56775379 C-19.02706188 125.67607605 -19.01534063 128.78375866 -18.99869633 131.89203358 C-19.00476902 132.79931202 -19.01084171 133.70659046 -19.01709843 134.64136219 C-18.94723829 141.72368354 -17.6320099 147.88538635 -13.86051273 153.94672108 C-8.13751062 159.51075091 -2.03281708 161.25517775 5.82097149 161.26564884 C6.90522907 161.26948999 7.98948665 161.27333113 9.10660052 161.27728868 C10.29209121 161.27642219 11.4775819 161.27555571 12.69899654 161.27466297 C14.59473144 161.27911965 14.59473144 161.27911965 16.52876401 161.28366637 C20.0345837 161.29172374 23.54038291 161.29352524 27.04621077 161.29426384 C30.82820368 161.29611658 34.61018602 161.303665 38.39217281 161.31039906 C46.6608109 161.32397365 54.92944413 161.33000566 63.19809151 161.33440971 C68.36201168 161.33717346 73.52592999 161.34141104 78.6898489 161.34591389 C92.9901572 161.35810512 107.29046401 161.36840491 121.5907774 161.37178898 C122.50579722 161.37200854 123.42081705 161.37222811 124.36356474 161.37245433 C125.73935611 161.37278175 125.73935611 161.37278175 127.14294124 161.37311578 C129.00149043 161.37355924 130.86003963 161.37400581 132.71858883 161.37445545 C133.64049111 161.37467688 134.56239338 161.37489831 135.5122321 161.37512645 C150.44999931 161.37907439 165.38771775 161.39652894 180.32546613 161.41981497 C195.66558816 161.44353506 211.00568572 161.45599112 226.34582639 161.4571569 C234.95724695 161.45807326 243.56860394 161.46381578 252.18000698 161.48197651 C259.5127534 161.49738631 266.8454166 161.50249275 274.17817613 161.49423841 C277.91803069 161.49033509 281.65771767 161.49124583 285.39755154 161.50529575 C289.45583617 161.52040236 293.51374419 161.51215885 297.57204342 161.50171375 C299.33689512 161.51379836 299.33689512 161.51379836 301.13740039 161.5261271 C308.951264 161.47908893 315.49352716 160.55837404 322.20198727 156.38422108 C329.11000196 149.27883453 329.53920698 141.75607864 329.55062008 132.34613514 C329.55558498 131.36499744 329.56054989 130.38385975 329.56566525 129.37299061 C329.58025205 126.13193525 329.58708327 122.89092885 329.59261227 119.64984608 C329.5983668 117.3916877 329.60412449 115.13352934 329.60988522 112.87537098 C329.62038545 108.14101401 329.62623445 103.40667398 329.62972164 98.67230701 C329.63520277 92.61870216 329.659227 86.56532263 329.6876936 80.51178837 C329.7063575 75.84651513 329.71152759 71.18129576 329.71305752 66.51598835 C329.71607633 64.28496285 329.7240787 62.05393812 329.7372427 59.82294941 C329.75438063 56.6950891 329.75240385 53.56777392 329.74593258 50.43988514 C329.75514736 49.52632252 329.76436214 48.6127599 329.77385616 47.67151356 C329.72608214 40.26507139 328.26040577 34.13902958 324.32698727 27.82172108 C316.85070874 20.98172157 308.13024863 20.55265735 298.4095068 20.62628651 C297.13394987 20.62004654 295.85839294 20.61380658 294.54418278 20.60737753 C291.0286458 20.59077657 287.51354667 20.59888791 283.99800873 20.6113224 C280.19697415 20.62040876 276.39601251 20.60638548 272.59499264 20.59540272 C265.15868103 20.577651 257.72253125 20.58144249 250.2862134 20.59305328 C244.24056677 20.60210054 238.19496538 20.60330602 232.14931393 20.59895802 C231.28764335 20.59834508 230.42597277 20.59773215 229.53819096 20.59710065 C227.7875196 20.5958217 226.03684825 20.59452484 224.28617692 20.59321028 C207.88449079 20.58181429 191.48289421 20.59490277 175.08122277 20.61641175 C161.01921923 20.63428184 146.9573478 20.63117746 132.89534664 20.6127367 C116.55085928 20.59131264 100.20645032 20.58291283 83.86195087 20.59518576 C82.11785413 20.5964599 80.37375737 20.59771739 78.62966061 20.59895802 C77.7716152 20.59957512 76.9135698 20.60019222 76.02952302 20.60082802 C69.99375052 20.60427632 63.95802791 20.59846382 57.92226315 20.5890398 C50.56291016 20.57780136 43.20372775 20.58089854 35.84439421 20.60216278 C32.0921967 20.61264848 28.34028321 20.61683773 24.58808804 20.60356617 C20.51496919 20.58937778 16.4425625 20.60636112 12.36946774 20.62628651 C11.19144148 20.61736362 10.01341522 20.60844073 8.7996912 20.59924746 C0.26803522 20.68010936 -7.09560505 21.91845447 -13.54801273 27.82172108 Z " fill="#000000" transform="translate(100.61051273345947,268.86577892303467)"/>
<path d="M0 0 C1.30867192 -0.00623996 2.61734385 -0.01247993 3.96567249 -0.01890898 C7.55984975 -0.03545328 11.15359674 -0.02742491 14.7477746 -0.0149641 C18.63879318 -0.00585411 22.52974156 -0.0199126 26.42074585 -0.03088379 C34.02810146 -0.04861058 41.63529863 -0.0448552 49.24266028 -0.03323323 C55.428846 -0.02417608 61.61498752 -0.02298474 67.80117798 -0.02732849 C69.12507922 -0.02824789 69.12507922 -0.02824789 70.47572595 -0.02918586 C72.26907151 -0.03046485 74.06241706 -0.0317617 75.8557626 -0.03307623 C92.6466968 -0.04446491 109.43754345 -0.03139524 126.22846329 -0.00987476 C140.61581297 0.00799466 155.00303351 0.00489007 169.39038086 -0.0135498 C186.12385907 -0.03498681 202.85726067 -0.04336644 219.59075069 -0.03110075 C221.37726274 -0.02982664 223.1637748 -0.02856915 224.95028687 -0.02732849 C225.82913805 -0.02671139 226.70798924 -0.02609429 227.61347228 -0.02545848 C233.78763192 -0.02201407 239.96174271 -0.02781428 246.13589478 -0.0372467 C253.66673146 -0.04849958 261.19740152 -0.04535784 268.72821927 -0.02412373 C272.56586829 -0.01365732 276.40324012 -0.00941543 280.24088669 -0.02272034 C284.41131759 -0.03695963 288.58105701 -0.01988519 292.75146484 0 C294.54901828 -0.01338433 294.54901828 -0.01338433 296.38288593 -0.02703905 C309.46911174 0.09348711 320.67489804 3.55212427 330.37573242 12.50793457 C343.04290223 26.30736537 341.97495022 43.28891053 341.90698242 60.82043457 C341.90968187 63.28178053 341.91356805 65.74312544 341.9185791 68.20446777 C341.92445274 73.3451154 341.91597992 78.48548366 341.8972168 83.62609863 C341.87442911 90.1859003 341.88756362 96.74504713 341.91150665 103.30482483 C341.92602224 108.38204808 341.92133222 113.45911836 341.91099548 118.53634644 C341.90834412 120.95384806 341.91154137 123.37136397 341.9209137 125.78884888 C341.97355424 143.17961941 341.83680151 158.03359516 329.37573242 171.50793457 C319.09487101 180.80224868 307.27517884 183.11534052 293.7890625 183.01586914 C292.47237233 183.0221091 291.15568216 183.02834907 289.79909229 183.03477812 C286.17792329 183.05134459 282.55718057 183.0432837 278.93601084 183.03083324 C275.01772708 183.02173254 271.09951344 183.03577721 267.1812439 183.04675293 C259.51860753 183.06448948 251.85612836 183.06071995 244.19348598 183.04910237 C237.96293144 183.0400491 231.7324208 183.03885221 225.50186157 183.04319763 C224.16899792 183.04411703 224.16899792 183.04411703 222.80920774 183.045055 C221.00378091 183.04633397 219.19835409 183.04763083 217.39292729 183.04894537 C200.48471238 183.06033692 183.57658437 183.04725986 166.66838372 183.0257439 C152.1772351 183.00787422 137.68621467 183.01097872 123.19506836 183.02941895 C106.34514476 183.05085087 89.49529723 183.05923841 72.6453619 183.04696989 C70.8467757 183.04569577 69.04818949 183.04443828 67.24960327 183.04319763 C66.36478816 183.04258053 65.47997306 183.04196343 64.56834537 183.04132763 C58.34914396 183.03788169 52.12999102 183.04368672 45.91079712 183.05311584 C38.32610925 183.06436305 30.74158685 183.06123878 23.15691781 183.03999287 C19.29104655 183.02951891 15.42545065 183.02529769 11.55958176 183.03858948 C7.36028482 183.05280874 3.1616762 183.03577003 -1.03759766 183.01586914 C-2.24734347 183.02479203 -3.45708929 183.03371491 -4.70349407 183.04290819 C-17.5504185 182.92516743 -28.0795078 179.20962408 -37.62426758 170.50793457 C-46.2668684 160.96573218 -49.24479461 149.60529598 -49.1418457 136.97888184 C-49.14885498 135.89585785 -49.15586426 134.81283386 -49.16308594 133.69699097 C-49.18053336 130.1558382 -49.16908905 126.61550016 -49.15551758 123.07434082 C-49.15821648 120.58914539 -49.1621022 118.103951 -49.16711426 115.61875916 C-49.17299158 110.42505786 -49.16450379 105.23163288 -49.14575195 100.03796387 C-49.122976 93.40975445 -49.136089 86.78219353 -49.16004181 80.15400791 C-49.17455755 75.02617079 -49.1698671 69.89848514 -49.15953064 64.77064323 C-49.15687869 62.32802184 -49.16007861 59.88538631 -49.16944885 57.44278145 C-49.22178644 39.96631099 -49.13338101 25.05766749 -36.62426758 11.50793457 C-26.27488041 2.00772789 -13.61232758 -0.10135548 0 0 Z M-22.62426758 28.50793457 C-27.59179641 35.56350943 -27.77531856 41.98368715 -27.78540039 50.29602051 C-27.7903653 51.2771582 -27.7953302 52.2582959 -27.80044556 53.26916504 C-27.81503236 56.5102204 -27.82186358 59.7512268 -27.82739258 62.99230957 C-27.83314711 65.25046794 -27.8389048 67.50862631 -27.84466553 69.76678467 C-27.85516576 74.50114163 -27.86101476 79.23548167 -27.86450195 83.96984863 C-27.86998308 90.02345349 -27.89400732 96.07683302 -27.92247391 102.13036728 C-27.94113781 106.79564051 -27.9463079 111.46085989 -27.94783783 116.1261673 C-27.95085664 118.3571928 -27.95885901 120.58821753 -27.97202301 122.81920624 C-27.98916094 125.94706655 -27.98718416 129.07438173 -27.98071289 132.20227051 C-27.98992767 133.11583313 -27.99914246 134.02939575 -28.00863647 134.97064209 C-27.96086245 142.37708426 -26.49518608 148.50312607 -22.56176758 154.82043457 C-15.08548905 161.66043408 -6.36502894 162.0894983 3.35571289 162.01586914 C5.26904828 162.02522908 5.26904828 162.02522908 7.22103691 162.03477812 C10.73657389 162.05137908 14.25167302 162.04326774 17.76721096 162.03083324 C21.56824554 162.02174689 25.36920718 162.03577017 29.17022705 162.04675293 C36.60653866 162.06450465 44.04268844 162.06071315 51.47900629 162.04910237 C57.52465291 162.0400551 63.5702543 162.03884963 69.61590576 162.04319763 C70.90841163 162.04411703 70.90841163 162.04411703 72.22702873 162.045055 C73.97770009 162.04633395 75.72837143 162.04763081 77.47904277 162.04894537 C93.88072889 162.06034136 110.28232548 162.04725288 126.68399692 162.0257439 C140.74600045 162.00787381 154.80787189 162.01097819 168.86987305 162.02941895 C185.21436041 162.05084301 201.55876937 162.05924281 217.90326881 162.04696989 C219.64736556 162.04569574 221.39146231 162.04443826 223.13555908 162.04319763 C223.99360449 162.04258053 224.85164989 162.04196343 225.73569667 162.04132763 C231.77146917 162.03787933 237.80719178 162.04369183 243.84295654 162.05311584 C251.20230953 162.06435429 258.56149194 162.0612571 265.92082548 162.03999287 C269.67302299 162.02950717 273.42493648 162.02531792 277.17713165 162.03858948 C281.25025049 162.05277786 285.32265719 162.03579452 289.39575195 162.01586914 C290.57377821 162.02479203 291.75180447 162.03371491 292.96552849 162.04290819 C300.6649126 161.96993445 308.58673795 161.26622224 314.31721687 155.58218431 C320.11363898 148.56499547 320.67413191 141.25622572 320.65039062 132.49279785 C320.65550156 131.5113681 320.66061249 130.52993835 320.6658783 129.51876831 C320.67972857 126.28853177 320.67882088 123.0585097 320.67651367 119.82824707 C320.6804032 117.57294638 320.68473841 115.31764643 320.6894989 113.06234741 C320.69695138 108.3399213 320.69667693 103.61756996 320.69140625 98.8951416 C320.68561409 92.85726766 320.70254148 86.81970072 320.72575092 80.78187752 C320.74051595 76.12517521 320.74135616 71.46854637 320.7382412 66.8118248 C320.73875305 64.58638781 320.74396515 62.36094656 320.75405312 60.13553238 C320.76645323 57.01744149 320.75960407 53.89994248 320.74804688 50.78186035 C320.75569061 49.87143982 320.76333435 48.96101929 320.77120972 48.02301025 C320.71337341 40.9277864 319.40410744 34.76782299 315.62573242 28.69543457 C309.90273031 23.13140474 303.79803677 21.3869779 295.9442482 21.37650681 C294.85999062 21.37266566 293.77573304 21.36882452 292.65861917 21.36486697 C291.47312848 21.36573345 290.28763779 21.36659994 289.06622314 21.36749268 C287.17048825 21.36303599 287.17048825 21.36303599 285.23645568 21.35848927 C281.73063598 21.35043191 278.22483678 21.34863041 274.71900892 21.34789181 C270.937016 21.34603907 267.15503366 21.33849064 263.37304688 21.33175659 C255.10440879 21.318182 246.83577556 21.31214999 238.56712818 21.30774593 C233.40320801 21.30498219 228.2392897 21.30074461 223.07537079 21.29624176 C208.77506249 21.28405053 194.47475568 21.27375074 180.17444229 21.27036667 C179.25942247 21.2701471 178.34440264 21.26992754 177.40165494 21.26970132 C176.02586358 21.2693739 176.02586358 21.2693739 174.62227845 21.26903987 C172.76372925 21.2685964 170.90518006 21.26814984 169.04663086 21.2677002 C168.12472858 21.26747877 167.2028263 21.26725734 166.25298759 21.2670292 C151.31522037 21.26308126 136.37750194 21.24562671 121.43975356 21.22234067 C106.09963153 21.19862059 90.75953397 21.18616453 75.4193933 21.18499875 C66.80797274 21.18408239 58.19661575 21.17833987 49.58521271 21.16017914 C42.25246628 21.14476934 34.91980309 21.1396629 27.58704355 21.14791724 C23.847189 21.15182056 20.10750202 21.15090981 16.36766815 21.13685989 C12.30938352 21.12175329 8.2514755 21.1299968 4.19317627 21.14044189 C3.01660847 21.13238549 1.84004067 21.12432909 0.6278193 21.11602855 C-8.0037835 21.16798937 -16.32506027 22.02874991 -22.62426758 28.50793457 Z " fill="#000000" transform="translate(109.624267578125,60.4920654296875)"/>
</svg>
