<?xml version="1.0" encoding="UTF-8"?>
<svg version="1.1" xmlns="http://www.w3.org/2000/svg" width="512" height="512">
<path d="M0 0 C1.04665421 -0.00573832 1.04665421 -0.00573832 2.11445296 -0.01159257 C4.44036292 -0.02186824 6.76602352 -0.01794084 9.09194946 -0.01396179 C10.76456428 -0.0183113 12.43717711 -0.02349525 14.10978699 -0.02944946 C18.64497068 -0.04282555 23.18007095 -0.04341964 27.71527052 -0.04088616 C31.5049499 -0.03981543 35.29461247 -0.04470249 39.08428824 -0.04949158 C48.02712173 -0.06058214 56.96991321 -0.06102683 65.91275024 -0.05497742 C75.12974796 -0.04893828 84.34659299 -0.06124816 93.56356466 -0.08254749 C101.4847741 -0.10017749 109.40593501 -0.1061626 117.32716334 -0.10290974 C122.05466211 -0.10109885 126.78205197 -0.10371365 131.50953293 -0.11762428 C135.95668119 -0.13022064 140.40359191 -0.12824145 144.85073662 -0.11521339 C146.4792902 -0.11285194 148.10786059 -0.11556684 149.73639488 -0.12383652 C167.59526678 -0.20795719 167.59526678 -0.20795719 174.08267212 5.09272766 C179.16226444 11.25385998 181.54757736 16.05842067 180.84048462 24.26069641 C179.10767717 30.88836868 176.44675203 35.55787402 170.60757446 39.37294006 C164.46971473 42.32843983 157.91731106 41.78658818 151.25454712 41.71479797 C149.76173952 41.71357108 148.2689296 41.71410926 146.77612305 41.716259 C142.79633927 41.71715809 138.81704142 41.6940593 134.83737183 41.66581726 C131.0962072 41.64295304 127.35515778 41.64196025 123.61392212 41.63911438 C112.68937917 41.61816661 101.76492567 41.56232161 90.84048462 41.51069641 C66.42048462 41.42819641 42.00048462 41.34569641 16.84048462 41.26069641 C16.84048462 125.74069641 16.84048462 210.22069641 16.84048462 297.26069641 C159.40048462 297.26069641 301.96048462 297.26069641 448.84048462 297.26069641 C448.84048462 212.78069641 448.84048462 128.30069641 448.84048462 41.26069641 C400.16461479 41.41901258 400.16461479 41.41901258 351.48892212 41.62104797 C342.06704712 41.63911438 342.06704712 41.63911438 337.65396118 41.64247131 C334.57669501 41.64619267 331.49970583 41.66116114 328.42251587 41.68299866 C324.49214039 41.71051961 320.56216531 41.71864566 316.63170242 41.71298552 C315.19250877 41.71416835 313.75330052 41.72205075 312.31418991 41.73755693 C304.40279732 41.81881182 298.55211356 41.66334062 291.84048462 37.26069641 C289.78189087 35.04194641 289.78189087 35.04194641 288.40298462 32.76069641 C287.69335571 31.63147766 287.69335571 31.63147766 286.96939087 30.47944641 C284.17166587 24.98080351 284.06181188 19.14399856 285.84048462 13.26069641 C287.84292077 8.38272399 291.46748277 5.09434034 295.84048462 2.26069641 C300.36086228 0.45685677 304.15486557 0.00799127 309.00672913 0 C309.70520417 -0.00382555 310.40367921 -0.00765109 311.12332016 -0.01159257 C313.45156403 -0.02186825 315.77955877 -0.01794086 318.1078186 -0.01396179 C319.78205594 -0.01831126 321.45629128 -0.02349519 323.13052368 -0.02944946 C327.66977231 -0.04282496 332.2089376 -0.04341978 336.74820209 -0.04088616 C340.54046105 -0.03981554 344.33270321 -0.04470212 348.12495857 -0.04949158 C357.07254582 -0.0605816 366.02009109 -0.06102691 374.96768188 -0.05497742 C384.19265194 -0.04893622 393.41746952 -0.06125349 402.64241356 -0.08254749 C410.56870286 -0.1001698 418.49494366 -0.10616388 426.42125183 -0.10290974 C431.15263107 -0.10109786 435.88390152 -0.10372367 440.61526299 -0.11762428 C445.06487048 -0.13020836 449.51424042 -0.12825305 453.9638443 -0.11521339 C455.59443047 -0.11284939 457.22503339 -0.11557602 458.85560036 -0.12383652 C461.08642664 -0.13432085 463.31645826 -0.12619061 465.54725647 -0.11352539 C467.41740748 -0.113777 467.41740748 -0.113777 469.32533932 -0.1140337 C476.0873647 0.60682826 481.03112915 3.56064448 485.84048462 8.26069641 C489.809448 14.01605871 489.25939686 19.99086556 489.22143555 26.71064758 C489.2284555 28.61083916 489.2284555 28.61083916 489.23561728 30.54941845 C489.2481307 34.05884792 489.24195546 37.56803237 489.23265862 41.07746267 C489.22586984 44.86484524 489.23634851 48.65218573 489.24459839 52.43955994 C489.25793974 59.85633882 489.2550562 67.27302663 489.24636047 74.68980908 C489.23958591 80.71746394 489.23866621 86.74509328 489.24193192 92.77275085 C489.24239161 93.63056756 489.24285131 94.48838427 489.24332494 95.37219542 C489.24428412 97.11482184 489.24525676 98.85744825 489.24624272 100.60007465 C489.25479779 116.94151822 489.24496064 133.28291132 489.22884162 149.62434661 C489.21543833 163.64670985 489.21776639 177.66899858 489.2315979 191.69136047 C489.24765164 207.97424325 489.2539738 224.25708177 489.24476111 240.53997135 C489.24380546 242.27619488 489.24286235 244.01241842 489.24193192 245.74864197 C489.24146909 246.60290195 489.24100626 247.45716194 489.24052941 248.33730859 C489.2379389 254.35787371 489.24231183 260.37841078 489.24937057 266.39897156 C489.25778348 273.73581768 489.25550986 281.07256752 489.23952834 288.40940261 C489.23164278 292.15293411 489.22855881 295.89630504 489.2384758 299.63983536 C489.24906096 303.69694518 489.23642385 307.7536494 489.22143555 311.81074524 C489.23147379 313.58768155 489.23147379 313.58768155 489.24171484 315.40051556 C489.19385459 322.05717658 488.83671238 326.93786562 484.19204712 332.08882141 C483.62228149 332.55804016 483.05251587 333.02725891 482.46548462 333.51069641 C481.61857056 334.22999329 481.61857056 334.22999329 480.75454712 334.96382141 C475.92950777 338.23303175 471.41410566 338.54884956 465.72001934 338.51796532 C464.90285077 338.52147139 464.08568221 338.52497747 463.24375096 338.52858979 C460.49392037 338.53792503 457.74430058 338.53297499 454.99446106 338.52812195 C453.00769179 338.53185714 451.02092399 338.53645813 449.03415853 338.54185259 C443.56532483 338.55411424 438.09655216 338.5538184 432.62770784 338.55146384 C426.73323581 338.55105648 420.83878355 338.56208714 414.94432068 338.57157898 C403.39252258 338.58820721 391.84074334 338.59371524 380.28893443 338.59480374 C370.90124646 338.59572254 361.51356511 338.59983773 352.12587929 338.60620499 C349.42442634 338.60800005 346.72297339 338.60977968 344.02152044 338.61155474 C343.01415865 338.61221789 343.01415865 338.61221789 341.98644613 338.61289443 C323.09407694 338.62520429 304.20171004 338.63309541 285.30933666 338.63220787 C284.59692984 338.63217671 283.88452303 338.63214556 283.15052812 338.63211345 C279.5396892 338.63194724 275.92885028 338.63174915 272.31801137 338.63154404 C271.60087572 338.63150415 270.88374008 338.63146426 270.14487306 338.63142316 C268.69464973 338.63134228 267.2444264 338.63125869 265.79420307 338.63117238 C243.23009602 338.62994681 220.66604908 338.64496042 198.10195923 338.6723175 C172.75587468 338.7030348 147.40982963 338.72025022 122.06372529 338.71839106 C119.36132928 338.7182418 116.65893327 338.71814439 113.95653725 338.71808243 C113.2911306 338.71805912 112.62572396 338.71803581 111.94015347 338.7180118 C101.89272582 338.71795405 91.84534742 338.72865518 81.79793358 338.74474716 C70.37095571 338.76293104 58.94407634 338.76732926 47.51709028 338.75372832 C41.68525311 338.74718463 35.85360508 338.74713205 30.02178574 338.76443481 C24.68421397 338.78010851 19.34698219 338.77736024 14.009419 338.75986655 C12.07740511 338.75678407 10.14536619 338.76047574 8.21338179 338.7715867 C5.58800003 338.78568668 2.96381434 338.77513843 0.33847332 338.75847435 C-0.78780041 338.77337889 -0.78780041 338.77337889 -1.93682715 338.78858453 C-8.27405945 338.70348896 -13.44632624 336.65468683 -18.21810913 332.44429016 C-18.67314819 331.86807922 -19.12818726 331.29186829 -19.59701538 330.69819641 C-20.07010132 330.11940735 -20.54318726 329.54061829 -21.03060913 328.94429016 C-23.202293 325.70555055 -23.28712598 322.85006257 -23.29652977 319.07251453 C-23.30160431 317.99162235 -23.30667886 316.91073017 -23.31190717 315.79708368 C-23.31240493 314.60508519 -23.31290269 313.4130867 -23.31341553 312.18496704 C-23.31779778 310.92214706 -23.32218004 309.65932708 -23.32669508 308.35823983 C-23.33866398 304.84597581 -23.34430976 301.33372553 -23.34887624 297.82144511 C-23.35483111 294.03602422 -23.36644122 290.25061977 -23.37716675 286.46520996 C-23.40169302 277.31989069 -23.41631804 268.17456598 -23.42922682 259.02922395 C-23.43293852 256.44646889 -23.43691177 253.86371437 -23.44097948 251.28095984 C-23.46621529 235.24459763 -23.48826979 219.20823457 -23.50070763 203.17185688 C-23.50363735 199.45708526 -23.50659901 195.74231367 -23.50961304 192.02754211 C-23.51035909 191.10424652 -23.51110514 190.18095093 -23.5118738 189.22967669 C-23.52452837 174.27167158 -23.55775272 159.31378532 -23.59941487 144.35583577 C-23.64183186 129.00109287 -23.66540237 113.64641081 -23.67062819 98.29160947 C-23.67404253 89.66951757 -23.68580037 81.04761141 -23.71873093 72.42557716 C-23.74672936 65.08283744 -23.75773172 57.74032152 -23.74653547 50.39753256 C-23.74134826 46.65162384 -23.74423889 42.90618382 -23.76900101 39.16034317 C-23.79563745 35.09701813 -23.7834355 31.03472489 -23.76751709 26.97134399 C-23.78139918 25.79049911 -23.79528126 24.60965423 -23.80958402 23.39302617 C-23.74178846 16.37788479 -22.7761697 11.66885038 -18.15951538 6.26069641 C-12.80789649 1.04629852 -7.30879383 0.01205052 0 0 Z " fill="#000000" transform="translate(23.159515380859375,140.7393035888672)"/>
<path d="M0 0 C4.87616519 2.81778398 8.64444768 7.07024181 10.625 12.375 C10.82332928 15.37536542 10.91028561 18.28339109 10.9034729 21.28399658 C10.9092653 22.19396291 10.9150577 23.10392923 10.92102563 24.04147029 C10.9380594 27.09701848 10.94090506 30.15241594 10.94384766 33.20800781 C10.9531435 35.39576591 10.96331165 37.58352045 10.97428894 39.77127075 C11.00164177 45.71711769 11.01675402 51.66294088 11.02971697 57.60883427 C11.04532439 63.82020361 11.07212221 70.03152425 11.0977478 76.24285889 C11.13925393 86.67035439 11.1738363 97.09785401 11.203125 107.52539062 C11.233311 118.26564445 11.26766149 129.00587164 11.30761719 139.74609375 C11.31007874 140.40815587 11.31254028 141.070218 11.31507643 141.75234261 C11.32745104 145.07372415 11.33991204 148.39510536 11.35240483 151.71648645 C11.45578766 179.26928812 11.5450274 206.82212115 11.625 234.375 C12.33519287 233.63862305 13.04538574 232.90224609 13.77709961 232.14355469 C16.44218112 229.38724712 19.1243729 226.64811617 21.81176758 223.91357422 C22.9674672 222.73289434 24.11862044 221.54774491 25.26489258 220.35791016 C39.40451965 205.69504917 39.40451965 205.69504917 50.1875 204.875 C56.75453028 205.2296654 61.59992283 207.94507312 66 212.75 C69.67643513 217.45543735 71.2252329 222.16450896 70.97683716 228.20980835 C69.17964654 239.26964679 59.81521655 246.88210084 52.2578125 254.3359375 C50.93563614 255.65639974 49.61435187 256.97775577 48.29391479 258.29995728 C45.53620265 261.0560235 42.77023399 263.80342303 39.99755859 266.54443359 C36.45449336 270.04774636 32.92943196 273.56852897 29.40994453 277.09551048 C26.68762153 279.82091051 23.95774298 282.53863628 21.2253685 285.25395584 C19.92298084 286.54934401 18.62250682 287.84665926 17.32403946 289.14597702 C15.5060632 290.9621444 13.67856778 292.76816613 11.84814453 294.57177734 C11.0561113 295.36820648 11.0561113 295.36820648 10.24807739 296.1807251 C4.98212587 301.32884928 -0.54502961 304.9678585 -8.05078125 305.46484375 C-21.97095122 304.92675315 -31.59838559 291.31416036 -40.73828125 282.1796875 C-42.01996332 280.90122433 -43.30171812 279.62283406 -44.58354187 278.34451294 C-47.25546481 275.678546 -49.92534532 273.01055274 -52.59399414 270.34130859 C-56.00961102 266.92558962 -59.43208562 263.5168312 -62.85632038 260.10975456 C-65.49944665 257.47774891 -68.13801333 254.84120868 -70.77532005 252.20337296 C-72.03557137 250.94429919 -73.29743881 249.68684084 -74.5609684 248.43105698 C-76.32449249 246.67734547 -78.08155027 244.91739312 -79.8371582 243.15576172 C-80.35614685 242.64239258 -80.8751355 242.12902344 -81.40985107 241.60009766 C-86.67237635 236.29164155 -89.4326748 231.58199007 -89.6875 224.125 C-89.59115194 218.25740325 -87.70098565 213.97158299 -83.796875 209.61328125 C-79.3557815 205.4822641 -75.19557581 203.53392578 -69.02734375 203.27734375 C-56.90724866 203.74566273 -49.27342372 213.07011989 -41.3125 221.25 C-40.34250997 222.23507768 -39.37181098 223.21945779 -38.40039062 224.203125 C-36.05155954 226.58701327 -33.71007237 228.97764626 -31.375 231.375 C-31.37261165 230.26916817 -31.37022329 229.16333633 -31.36776257 228.02399445 C-31.30896703 201.11619653 -31.23308379 174.20848816 -31.13928509 147.30078888 C-31.0943203 134.28842478 -31.05490713 121.2760881 -31.02856445 108.26367188 C-31.00559 96.92200486 -30.972198 85.58042454 -30.92629844 74.23882627 C-30.90235894 68.23359102 -30.88363486 62.22844167 -30.87738609 56.22315979 C-30.87133864 50.56953055 -30.85135063 44.91612112 -30.82072449 39.26257324 C-30.81193891 37.18897528 -30.80822276 35.1153486 -30.80999184 33.04173279 C-30.81164671 30.20664561 -30.79492675 27.37222683 -30.77372742 24.53723145 C-30.77857499 23.72008934 -30.78342257 22.90294724 -30.78841704 22.06104326 C-30.70576041 15.34521037 -29.45669791 9.77695913 -24.9375 4.5625 C-17.58380293 -1.71504628 -9.33501116 -4.28521465 0 0 Z " fill="#000000" transform="translate(265.375,34.625)"/>
</svg>
